<svg width="1156" height="450" viewBox="0 0 1156 450" fill="none" xmlns="http://www.w3.org/2000/svg">
<rect x="30" y="120" width="1109" height="132" rx="8" fill="url(#paint0_linear_532_465)"/>
<path d="M30 128C30 123.582 33.5817 120 38 120H1131C1135.42 120 1139 123.582 1139 128V244C1139 248.419 1135.42 252 1131 252H38C33.5817 252 30 248.419 30 244V128Z" fill="url(#paint1_linear_532_465)"/>
<path d="M175 196.5C175 184.633 172.558 172.893 167.826 162.01C163.095 151.127 156.174 141.334 147.496 133.241C138.817 125.147 128.566 118.926 117.379 114.964C106.193 111.002 94.3115 109.384 82.4733 110.21C70.635 111.037 59.0935 114.291 48.5668 119.77C38.04 125.248 28.753 132.834 21.2837 142.056C13.8144 151.277 8.32236 161.937 5.14936 173.372C1.97636 184.807 1.19022 196.773 2.83984 208.524L26.8289 205.157C25.6413 196.696 26.2073 188.082 28.4917 179.849C30.7761 171.616 34.73 163.942 40.1076 157.303C45.4852 150.664 52.1713 145.202 59.75 141.258C67.3288 137.314 75.6381 134.971 84.1611 134.376C92.684 133.781 101.238 134.945 109.292 137.798C117.345 140.65 124.726 145.129 130.974 150.956C137.222 156.784 142.204 163.834 145.611 171.669C149.018 179.504 150.776 187.957 150.776 196.5H175Z" fill="url(#paint2_linear_532_465)" fill-opacity="0.2"/>
<path d="M221.853 253.809C209.269 236.812 192.515 223.348 173.21 214.715C153.904 206.082 132.699 202.573 111.641 204.526C90.5836 206.479 70.3853 213.828 52.9965 225.864C35.6078 237.9 21.616 254.216 12.3722 273.237C3.12849 292.258 -1.05497 313.34 0.225808 334.449C1.50659 355.559 8.20834 375.981 19.6839 393.744C31.1596 411.508 47.0214 426.013 65.7377 435.858C84.4541 445.703 105.393 450.557 126.532 449.95L125.543 415.518C110.324 415.955 95.2489 412.461 81.774 405.373C68.2991 398.284 56.8794 387.842 48.6176 375.053C40.3557 362.264 35.5308 347.561 34.6087 332.363C33.6866 317.166 36.6985 301.987 43.3535 288.293C50.0086 274.599 60.0819 262.853 72.601 254.187C85.12 245.522 99.6618 240.231 114.822 238.825C129.983 237.419 145.249 239.945 159.149 246.16C173.048 252.376 185.11 262.069 194.17 274.306L221.853 253.809Z" fill="url(#paint3_linear_532_465)" fill-opacity="0.2"/>
<path d="M108 178.5C108 182.09 105.09 185 101.5 185C97.9102 185 95 182.09 95 178.5C95 174.91 97.9102 172 101.5 172C105.09 172 108 174.91 108 178.5Z" fill="url(#paint4_linear_532_465)" fill-opacity="0.2"/>
<path d="M195 174.5C195 178.09 192.09 181 188.5 181C184.91 181 182 178.09 182 174.5C182 170.91 184.91 168 188.5 168C192.09 168 195 170.91 195 174.5Z" fill="url(#paint5_linear_532_465)" fill-opacity="0.2"/>
<path d="M199 142C199 144.209 197.209 146 195 146C192.791 146 191 144.209 191 142C191 139.791 192.791 138 195 138C197.209 138 199 139.791 199 142Z" fill="url(#paint6_linear_532_465)" fill-opacity="0.2"/>
<path d="M116 261C116 263.209 114.209 265 112 265C109.791 265 108 263.209 108 261C108 258.791 109.791 257 112 257C114.209 257 116 258.791 116 261Z" fill="url(#paint7_linear_532_465)" fill-opacity="0.2"/>
<path d="M116 153C116 155.209 114.209 157 112 157C109.791 157 108 155.209 108 153C108 150.791 109.791 149 112 149C114.209 149 116 150.791 116 153Z" fill="url(#paint8_linear_532_465)" fill-opacity="0.2"/>
<path d="M218 194C218 195.105 217.105 196 216 196C214.895 196 214 195.105 214 194C214 192.896 214.895 192 216 192C217.105 192 218 192.896 218 194Z" fill="url(#paint9_linear_532_465)" fill-opacity="0.2"/>
<path d="M162 274C162 275.105 161.105 276 160 276C158.895 276 158 275.105 158 274C158 272.896 158.895 272 160 272C161.105 272 162 272.896 162 274Z" fill="url(#paint10_linear_532_465)" fill-opacity="0.2"/>
<path d="M179 206C179 207.105 178.105 208 177 208C175.895 208 175 207.105 175 206C175 204.896 175.895 204 177 204C178.105 204 179 204.896 179 206Z" fill="url(#paint11_linear_532_465)" fill-opacity="0.2"/>
<path d="M133 183C133 184.105 132.105 185 131 185C129.895 185 129 184.105 129 183C129 181.896 129.895 181 131 181C132.105 181 133 181.896 133 183Z" fill="url(#paint12_linear_532_465)" fill-opacity="0.2"/>
<path d="M994.326 262.038C1000.26 272.315 1008.24 281.261 1017.78 288.32C1027.32 295.379 1038.21 300.4 1049.78 303.07C1061.34 305.74 1073.33 306.002 1085 303.84C1096.66 301.678 1107.76 297.139 1117.6 290.504C1127.44 283.868 1135.81 275.28 1142.19 265.272C1148.56 255.264 1152.81 244.051 1154.67 232.33C1156.53 220.609 1155.96 208.632 1152.99 197.142C1150.02 185.653 1144.71 174.897 1137.41 165.544L1118.32 180.455C1123.58 187.189 1127.39 194.932 1129.53 203.204C1131.67 211.476 1132.08 220.099 1130.75 228.538C1129.41 236.976 1126.35 245.049 1121.76 252.254C1117.17 259.459 1111.14 265.643 1104.06 270.42C1096.97 275.197 1088.98 278.465 1080.58 280.021C1072.18 281.578 1063.55 281.389 1055.23 279.467C1046.9 277.545 1039.06 273.93 1032.19 268.848C1025.33 263.766 1019.58 257.325 1015.31 249.926L994.326 262.038Z" fill="url(#paint13_linear_532_465)" fill-opacity="0.2"/>
<path d="M925.096 235.834C944.492 244.261 965.734 247.545 986.769 245.368C1007.81 243.192 1027.92 235.628 1045.18 223.408C1062.44 211.188 1076.26 194.724 1085.3 175.606C1094.34 156.488 1098.3 135.362 1096.8 114.268C1095.29 93.1737 1088.37 72.8238 1076.71 55.1832C1065.05 37.5425 1049.03 23.2072 1030.21 13.5613C1011.39 3.91538 990.403 -0.715185 969.271 0.116699C948.14 0.948585 927.58 7.2148 909.576 18.3103L927.649 47.6346C940.61 39.6464 955.413 35.135 970.626 34.5361C985.84 33.9372 1000.95 37.271 1014.5 44.2156C1028.05 51.1601 1039.58 61.4809 1047.98 74.1813C1056.37 86.8816 1061.36 101.533 1062.44 116.719C1063.52 131.906 1060.67 147.116 1054.16 160.88C1047.65 174.644 1037.71 186.497 1025.28 195.295C1012.85 204.093 998.369 209.538 983.224 211.105C968.08 212.672 952.787 210.308 938.822 204.241L925.096 235.834Z" fill="url(#paint14_linear_532_465)" fill-opacity="0.2"/>
<path d="M1061.35 244.126C1059.56 241.017 1060.62 237.042 1063.73 235.247C1066.84 233.452 1070.81 234.517 1072.61 237.626C1074.4 240.735 1073.34 244.711 1070.23 246.505C1067.12 248.3 1063.15 247.235 1061.35 244.126Z" fill="url(#paint15_linear_532_465)" fill-opacity="0.2"/>
<path d="M988.006 291.09C986.211 287.981 987.276 284.006 990.385 282.211C993.494 280.416 997.469 281.481 999.264 284.59C1001.06 287.699 999.994 291.675 996.885 293.47C993.776 295.264 989.801 294.199 988.006 291.09Z" fill="url(#paint16_linear_532_465)" fill-opacity="0.2"/>
<path d="M1000.79 321.236C999.687 319.323 1000.34 316.877 1002.26 315.772C1004.17 314.668 1006.62 315.323 1007.72 317.236C1008.82 319.149 1008.17 321.596 1006.26 322.7C1004.34 323.805 1001.9 323.149 1000.79 321.236Z" fill="url(#paint17_linear_532_465)" fill-opacity="0.2"/>
<path d="M1013.17 176.679C1012.07 174.766 1012.72 172.32 1014.64 171.215C1016.55 170.111 1019 170.766 1020.1 172.679C1021.2 174.592 1020.55 177.039 1018.64 178.143C1016.72 179.248 1014.28 178.592 1013.17 176.679Z" fill="url(#paint18_linear_532_465)" fill-opacity="0.2"/>
<path d="M1067.17 270.21C1066.07 268.297 1066.72 265.85 1068.64 264.746C1070.55 263.641 1073 264.297 1074.1 266.21C1075.2 268.123 1074.55 270.569 1072.64 271.674C1070.72 272.779 1068.28 272.123 1067.17 270.21Z" fill="url(#paint19_linear_532_465)" fill-opacity="0.2"/>
<path d="M958.337 285.703C957.785 284.746 958.113 283.523 959.069 282.971C960.026 282.419 961.249 282.746 961.801 283.703C962.354 284.659 962.026 285.883 961.069 286.435C960.113 286.987 958.89 286.659 958.337 285.703Z" fill="url(#paint20_linear_532_465)" fill-opacity="0.2"/>
<path d="M966.835 188.421C966.282 187.464 966.61 186.241 967.567 185.689C968.523 185.137 969.747 185.464 970.299 186.421C970.851 187.377 970.523 188.601 969.567 189.153C968.61 189.705 967.387 189.377 966.835 188.421Z" fill="url(#paint21_linear_532_465)" fill-opacity="0.2"/>
<path d="M986.112 255.811C985.56 254.854 985.888 253.631 986.844 253.079C987.801 252.526 989.024 252.854 989.576 253.811C990.129 254.767 989.801 255.99 988.844 256.543C987.888 257.095 986.665 256.767 986.112 255.811Z" fill="url(#paint22_linear_532_465)" fill-opacity="0.2"/>
<path d="M1037.45 252.729C1036.9 251.773 1037.22 250.549 1038.18 249.997C1039.14 249.445 1040.36 249.773 1040.91 250.729C1041.47 251.686 1041.14 252.909 1040.18 253.461C1039.22 254.014 1038 253.686 1037.45 252.729Z" fill="url(#paint23_linear_532_465)" fill-opacity="0.2"/>
<defs>
<linearGradient id="paint0_linear_532_465" x1="584.5" y1="120" x2="731.156" y2="396.087" gradientUnits="userSpaceOnUse">
<stop stop-color="#68AEFF"/>
<stop offset="1" stop-color="#007AFC"/>
</linearGradient>
<linearGradient id="paint1_linear_532_465" x1="577.869" y1="0.0214537" x2="912.043" y2="656.403" gradientUnits="userSpaceOnUse">
<stop stop-color="#68AEFF"/>
<stop offset="1" stop-color="#007AFC"/>
</linearGradient>
<linearGradient id="paint2_linear_532_465" x1="1104.56" y1="254.973" x2="770.148" y2="98.7503" gradientUnits="userSpaceOnUse">
<stop stop-color="white"/>
<stop offset="0.53014" stop-color="white" stop-opacity="0"/>
</linearGradient>
<linearGradient id="paint3_linear_532_465" x1="1104.56" y1="254.973" x2="770.148" y2="98.7503" gradientUnits="userSpaceOnUse">
<stop stop-color="white"/>
<stop offset="0.53014" stop-color="white" stop-opacity="0"/>
</linearGradient>
<linearGradient id="paint4_linear_532_465" x1="1104.56" y1="254.973" x2="770.148" y2="98.7503" gradientUnits="userSpaceOnUse">
<stop stop-color="white"/>
<stop offset="0.53014" stop-color="white" stop-opacity="0"/>
</linearGradient>
<linearGradient id="paint5_linear_532_465" x1="1104.56" y1="254.973" x2="770.148" y2="98.7503" gradientUnits="userSpaceOnUse">
<stop stop-color="white"/>
<stop offset="0.53014" stop-color="white" stop-opacity="0"/>
</linearGradient>
<linearGradient id="paint6_linear_532_465" x1="1104.56" y1="254.973" x2="770.148" y2="98.7503" gradientUnits="userSpaceOnUse">
<stop stop-color="white"/>
<stop offset="0.53014" stop-color="white" stop-opacity="0"/>
</linearGradient>
<linearGradient id="paint7_linear_532_465" x1="1104.56" y1="254.973" x2="770.148" y2="98.7503" gradientUnits="userSpaceOnUse">
<stop stop-color="white"/>
<stop offset="0.53014" stop-color="white" stop-opacity="0"/>
</linearGradient>
<linearGradient id="paint8_linear_532_465" x1="1104.56" y1="254.973" x2="770.148" y2="98.7503" gradientUnits="userSpaceOnUse">
<stop stop-color="white"/>
<stop offset="0.53014" stop-color="white" stop-opacity="0"/>
</linearGradient>
<linearGradient id="paint9_linear_532_465" x1="1104.56" y1="254.973" x2="770.148" y2="98.7503" gradientUnits="userSpaceOnUse">
<stop stop-color="white"/>
<stop offset="0.53014" stop-color="white" stop-opacity="0"/>
</linearGradient>
<linearGradient id="paint10_linear_532_465" x1="1104.56" y1="254.973" x2="770.148" y2="98.7503" gradientUnits="userSpaceOnUse">
<stop stop-color="white"/>
<stop offset="0.53014" stop-color="white" stop-opacity="0"/>
</linearGradient>
<linearGradient id="paint11_linear_532_465" x1="1104.56" y1="254.973" x2="770.148" y2="98.7503" gradientUnits="userSpaceOnUse">
<stop stop-color="white"/>
<stop offset="0.53014" stop-color="white" stop-opacity="0"/>
</linearGradient>
<linearGradient id="paint12_linear_532_465" x1="1104.56" y1="254.973" x2="770.148" y2="98.7503" gradientUnits="userSpaceOnUse">
<stop stop-color="white"/>
<stop offset="0.53014" stop-color="white" stop-opacity="0"/>
</linearGradient>
<linearGradient id="paint13_linear_532_465" x1="1104.56" y1="254.973" x2="770.148" y2="98.7503" gradientUnits="userSpaceOnUse">
<stop stop-color="white"/>
<stop offset="0.53014" stop-color="white" stop-opacity="0"/>
</linearGradient>
<linearGradient id="paint14_linear_532_465" x1="1104.56" y1="254.973" x2="770.148" y2="98.7503" gradientUnits="userSpaceOnUse">
<stop stop-color="white"/>
<stop offset="0.53014" stop-color="white" stop-opacity="0"/>
</linearGradient>
<linearGradient id="paint15_linear_532_465" x1="1104.56" y1="254.973" x2="770.148" y2="98.7503" gradientUnits="userSpaceOnUse">
<stop stop-color="white"/>
<stop offset="0.53014" stop-color="white" stop-opacity="0"/>
</linearGradient>
<linearGradient id="paint16_linear_532_465" x1="1104.56" y1="254.973" x2="770.148" y2="98.7503" gradientUnits="userSpaceOnUse">
<stop stop-color="white"/>
<stop offset="0.53014" stop-color="white" stop-opacity="0"/>
</linearGradient>
<linearGradient id="paint17_linear_532_465" x1="1104.56" y1="254.973" x2="770.148" y2="98.7503" gradientUnits="userSpaceOnUse">
<stop stop-color="white"/>
<stop offset="0.53014" stop-color="white" stop-opacity="0"/>
</linearGradient>
<linearGradient id="paint18_linear_532_465" x1="1104.56" y1="254.973" x2="770.148" y2="98.7503" gradientUnits="userSpaceOnUse">
<stop stop-color="white"/>
<stop offset="0.53014" stop-color="white" stop-opacity="0"/>
</linearGradient>
<linearGradient id="paint19_linear_532_465" x1="1104.56" y1="254.973" x2="770.148" y2="98.7503" gradientUnits="userSpaceOnUse">
<stop stop-color="white"/>
<stop offset="0.53014" stop-color="white" stop-opacity="0"/>
</linearGradient>
<linearGradient id="paint20_linear_532_465" x1="1104.56" y1="254.973" x2="770.148" y2="98.7503" gradientUnits="userSpaceOnUse">
<stop stop-color="white"/>
<stop offset="0.53014" stop-color="white" stop-opacity="0"/>
</linearGradient>
<linearGradient id="paint21_linear_532_465" x1="1104.56" y1="254.973" x2="770.148" y2="98.7503" gradientUnits="userSpaceOnUse">
<stop stop-color="white"/>
<stop offset="0.53014" stop-color="white" stop-opacity="0"/>
</linearGradient>
<linearGradient id="paint22_linear_532_465" x1="1104.56" y1="254.973" x2="770.148" y2="98.7503" gradientUnits="userSpaceOnUse">
<stop stop-color="white"/>
<stop offset="0.53014" stop-color="white" stop-opacity="0"/>
</linearGradient>
<linearGradient id="paint23_linear_532_465" x1="1104.56" y1="254.973" x2="770.148" y2="98.7503" gradientUnits="userSpaceOnUse">
<stop stop-color="white"/>
<stop offset="0.53014" stop-color="white" stop-opacity="0"/>
</linearGradient>
</defs>
</svg>
