<svg width="98" height="92" viewBox="0 0 98 92" fill="none" xmlns="http://www.w3.org/2000/svg">
<path d="M49 29C49 31.2091 47.2091 33 45 33C42.7909 33 41 31.2091 41 29C41 26.7909 42.7909 25 45 25C47.2091 25 49 26.7909 49 29Z" fill="url(#paint0_linear_137_3691)"/>
<path d="M59 19C59 21.2091 57.2091 23 55 23C52.7909 23 51 21.2091 51 19C51 16.7909 52.7909 15 55 15C57.2091 15 59 16.7909 59 19Z" fill="url(#paint1_linear_137_3691)"/>
<path d="M69 9C69 11.2091 67.2091 13 65 13C62.7909 13 61 11.2091 61 9C61 6.79086 62.7909 5 65 5C67.2091 5 69 6.79086 69 9Z" fill="url(#paint2_linear_137_3691)"/>
<path d="M79 -1C79 1.20914 77.2091 3 75 3C72.7909 3 71 1.20914 71 -1C71 -3.20914 72.7909 -5 75 -5C77.2091 -5 79 -3.20914 79 -1Z" fill="url(#paint3_linear_137_3691)"/>
<path d="M19 59C19 61.2091 17.2091 63 15 63C12.7909 63 11 61.2091 11 59C11 56.7909 12.7909 55 15 55C17.2091 55 19 56.7909 19 59Z" fill="url(#paint4_linear_137_3691)"/>
<path d="M9 69C9 71.2091 7.20914 73 5 73C2.79086 73 1 71.2091 1 69C1 66.7909 2.79086 65 5 65C7.20914 65 9 66.7909 9 69Z" fill="url(#paint5_linear_137_3691)"/>
<path d="M18 78C18 80.2091 16.2091 82 14 82C11.7909 82 10 80.2091 10 78C10 75.7909 11.7909 74 14 74C16.2091 74 18 75.7909 18 78Z" fill="url(#paint6_linear_137_3691)"/>
<path d="M8 88C8 90.2091 6.20914 92 4 92C1.79086 92 0 90.2091 0 88C0 85.7909 1.79086 84 4 84C6.20914 84 8 85.7909 8 88Z" fill="url(#paint7_linear_137_3691)"/>
<path d="M29 49C29 51.2091 27.2091 53 25 53C22.7909 53 21 51.2091 21 49C21 46.7909 22.7909 45 25 45C27.2091 45 29 46.7909 29 49Z" fill="url(#paint8_linear_137_3691)"/>
<path d="M39 39C39 41.2091 37.2091 43 35 43C32.7909 43 31 41.2091 31 39C31 36.7909 32.7909 35 35 35C37.2091 35 39 36.7909 39 39Z" fill="url(#paint9_linear_137_3691)"/>
<path d="M39 20C39 22.2091 37.2091 24 35 24C32.7909 24 31 22.2091 31 20C31 17.7909 32.7909 16 35 16C37.2091 16 39 17.7909 39 20Z" fill="url(#paint10_linear_137_3691)"/>
<path d="M49 10C49 12.2091 47.2091 14 45 14C42.7909 14 41 12.2091 41 10C41 7.79086 42.7909 6 45 6C47.2091 6 49 7.79086 49 10Z" fill="url(#paint11_linear_137_3691)"/>
<path d="M59 0C59 2.20914 57.2091 4 55 4C52.7909 4 51 2.20914 51 0C51 -2.20914 52.7909 -4 55 -4C57.2091 -4 59 -2.20914 59 0Z" fill="url(#paint12_linear_137_3691)"/>
<path d="M9 50C9 52.2091 7.20914 54 5 54C2.79086 54 1 52.2091 1 50C1 47.7909 2.79086 46 5 46C7.20914 46 9 47.7909 9 50Z" fill="url(#paint13_linear_137_3691)"/>
<path d="M19 40C19 42.2091 17.2091 44 15 44C12.7909 44 11 42.2091 11 40C11 37.7909 12.7909 36 15 36C17.2091 36 19 37.7909 19 40Z" fill="url(#paint14_linear_137_3691)"/>
<path d="M29 30C29 32.2091 27.2091 34 25 34C22.7909 34 21 32.2091 21 30C21 27.7909 22.7909 26 25 26C27.2091 26 29 27.7909 29 30Z" fill="url(#paint15_linear_137_3691)"/>
<path d="M30 11C30 13.2091 28.2091 15 26 15C23.7909 15 22 13.2091 22 11C22 8.79086 23.7909 7 26 7C28.2091 7 30 8.79086 30 11Z" fill="url(#paint16_linear_137_3691)"/>
<path d="M40 1C40 3.20914 38.2091 5 36 5C33.7909 5 32 3.20914 32 1C32 -1.20914 33.7909 -3 36 -3C38.2091 -3 40 -1.20914 40 1Z" fill="url(#paint17_linear_137_3691)"/>
<path d="M50 -9C50 -6.79086 48.2091 -5 46 -5C43.7909 -5 42 -6.79086 42 -9C42 -11.2091 43.7909 -13 46 -13C48.2091 -13 50 -11.2091 50 -9Z" fill="url(#paint18_linear_137_3691)"/>
<path d="M0 41C0 43.2091 -1.79086 45 -4 45C-6.20914 45 -8 43.2091 -8 41C-8 38.7909 -6.20914 37 -4 37C-1.79086 37 0 38.7909 0 41Z" fill="url(#paint19_linear_137_3691)"/>
<path d="M10 31C10 33.2091 8.20914 35 6 35C3.79086 35 2 33.2091 2 31C2 28.7909 3.79086 27 6 27C8.20914 27 10 28.7909 10 31Z" fill="url(#paint20_linear_137_3691)"/>
<path d="M20 21C20 23.2091 18.2091 25 16 25C13.7909 25 12 23.2091 12 21C12 18.7909 13.7909 17 16 17C18.2091 17 20 18.7909 20 21Z" fill="url(#paint21_linear_137_3691)"/>
<path d="M21 2C21 4.20914 19.2091 6 17 6C14.7909 6 13 4.20914 13 2C13 -0.209139 14.7909 -2 17 -2C19.2091 -2 21 -0.209139 21 2Z" fill="url(#paint22_linear_137_3691)"/>
<path d="M31 -8C31 -5.79086 29.2091 -4 27 -4C24.7909 -4 23 -5.79086 23 -8C23 -10.2091 24.7909 -12 27 -12C29.2091 -12 31 -10.2091 31 -8Z" fill="url(#paint23_linear_137_3691)"/>
<path d="M41 -18C41 -15.7909 39.2091 -14 37 -14C34.7909 -14 33 -15.7909 33 -18C33 -20.2091 34.7909 -22 37 -22C39.2091 -22 41 -20.2091 41 -18Z" fill="url(#paint24_linear_137_3691)"/>
<path d="M-9 32C-9 34.2091 -10.7909 36 -13 36C-15.2091 36 -17 34.2091 -17 32C-17 29.7909 -15.2091 28 -13 28C-10.7909 28 -9 29.7909 -9 32Z" fill="url(#paint25_linear_137_3691)"/>
<path d="M1 22C1 24.2091 -0.790861 26 -3 26C-5.20914 26 -7 24.2091 -7 22C-7 19.7909 -5.20914 18 -3 18C-0.790861 18 1 19.7909 1 22Z" fill="url(#paint26_linear_137_3691)"/>
<path d="M11 12C11 14.2091 9.20914 16 7 16C4.79086 16 3 14.2091 3 12C3 9.79086 4.79086 8 7 8C9.20914 8 11 9.79086 11 12Z" fill="url(#paint27_linear_137_3691)"/>
<path d="M12 -7C12 -4.79086 10.2091 -3 8 -3C5.79086 -3 4 -4.79086 4 -7C4 -9.20914 5.79086 -11 8 -11C10.2091 -11 12 -9.20914 12 -7Z" fill="url(#paint28_linear_137_3691)"/>
<path d="M22 -17C22 -14.7909 20.2091 -13 18 -13C15.7909 -13 14 -14.7909 14 -17C14 -19.2091 15.7909 -21 18 -21C20.2091 -21 22 -19.2091 22 -17Z" fill="url(#paint29_linear_137_3691)"/>
<path d="M32 -27C32 -24.7909 30.2091 -23 28 -23C25.7909 -23 24 -24.7909 24 -27C24 -29.2091 25.7909 -31 28 -31C30.2091 -31 32 -29.2091 32 -27Z" fill="url(#paint30_linear_137_3691)"/>
<path d="M-18 23C-18 25.2091 -19.7909 27 -22 27C-24.2091 27 -26 25.2091 -26 23C-26 20.7909 -24.2091 19 -22 19C-19.7909 19 -18 20.7909 -18 23Z" fill="url(#paint31_linear_137_3691)"/>
<path d="M-8 13C-8 15.2091 -9.79086 17 -12 17C-14.2091 17 -16 15.2091 -16 13C-16 10.7909 -14.2091 9 -12 9C-9.79086 9 -8 10.7909 -8 13Z" fill="url(#paint32_linear_137_3691)"/>
<path d="M2 3C2 5.20914 0.209139 7 -2 7C-4.20914 7 -6 5.20914 -6 3C-6 0.790861 -4.20914 -1 -2 -1C0.209139 -1 2 0.790861 2 3Z" fill="url(#paint33_linear_137_3691)"/>
<path d="M58 38C58 40.2091 56.2091 42 54 42C51.7909 42 50 40.2091 50 38C50 35.7909 51.7909 34 54 34C56.2091 34 58 35.7909 58 38Z" fill="url(#paint34_linear_137_3691)"/>
<path d="M68 28C68 30.2091 66.2091 32 64 32C61.7909 32 60 30.2091 60 28C60 25.7909 61.7909 24 64 24C66.2091 24 68 25.7909 68 28Z" fill="url(#paint35_linear_137_3691)"/>
<path d="M78 18C78 20.2091 76.2091 22 74 22C71.7909 22 70 20.2091 70 18C70 15.7909 71.7909 14 74 14C76.2091 14 78 15.7909 78 18Z" fill="url(#paint36_linear_137_3691)"/>
<path d="M88 7C88 9.20914 86.2091 11 84 11C81.7909 11 80 9.20914 80 7C80 4.79086 81.7909 3 84 3C86.2091 3 88 4.79086 88 7Z" fill="url(#paint37_linear_137_3691)"/>
<path d="M98 -3C98 -0.790861 96.2091 1 94 1C91.7909 1 90 -0.790861 90 -3C90 -5.20914 91.7909 -7 94 -7C96.2091 -7 98 -5.20914 98 -3Z" fill="url(#paint38_linear_137_3691)"/>
<path d="M28 68C28 70.2091 26.2091 72 24 72C21.7909 72 20 70.2091 20 68C20 65.7909 21.7909 64 24 64C26.2091 64 28 65.7909 28 68Z" fill="url(#paint39_linear_137_3691)"/>
<path d="M38 58C38 60.2091 36.2091 62 34 62C31.7909 62 30 60.2091 30 58C30 55.7909 31.7909 54 34 54C36.2091 54 38 55.7909 38 58Z" fill="url(#paint40_linear_137_3691)"/>
<path d="M48 48C48 50.2091 46.2091 52 44 52C41.7909 52 40 50.2091 40 48C40 45.7909 41.7909 44 44 44C46.2091 44 48 45.7909 48 48Z" fill="url(#paint41_linear_137_3691)"/>
<defs>
<linearGradient id="paint0_linear_137_3691" x1="36" y1="-50" x2="98" y2="41" gradientUnits="userSpaceOnUse">
<stop stop-color="#8AE174"/>
<stop offset="0.921875" stop-color="#8AE174" stop-opacity="0"/>
</linearGradient>
<linearGradient id="paint1_linear_137_3691" x1="36" y1="-50" x2="98" y2="41" gradientUnits="userSpaceOnUse">
<stop stop-color="#8AE174"/>
<stop offset="0.921875" stop-color="#8AE174" stop-opacity="0"/>
</linearGradient>
<linearGradient id="paint2_linear_137_3691" x1="36" y1="-50" x2="98" y2="41" gradientUnits="userSpaceOnUse">
<stop stop-color="#8AE174"/>
<stop offset="0.921875" stop-color="#8AE174" stop-opacity="0"/>
</linearGradient>
<linearGradient id="paint3_linear_137_3691" x1="36" y1="-50" x2="98" y2="41" gradientUnits="userSpaceOnUse">
<stop stop-color="#8AE174"/>
<stop offset="0.921875" stop-color="#8AE174" stop-opacity="0"/>
</linearGradient>
<linearGradient id="paint4_linear_137_3691" x1="36" y1="-50" x2="98" y2="41" gradientUnits="userSpaceOnUse">
<stop stop-color="#8AE174"/>
<stop offset="0.921875" stop-color="#8AE174" stop-opacity="0"/>
</linearGradient>
<linearGradient id="paint5_linear_137_3691" x1="36" y1="-50" x2="98" y2="41" gradientUnits="userSpaceOnUse">
<stop stop-color="#8AE174"/>
<stop offset="0.921875" stop-color="#8AE174" stop-opacity="0"/>
</linearGradient>
<linearGradient id="paint6_linear_137_3691" x1="36" y1="-50" x2="98" y2="41" gradientUnits="userSpaceOnUse">
<stop stop-color="#8AE174"/>
<stop offset="0.921875" stop-color="#8AE174" stop-opacity="0"/>
</linearGradient>
<linearGradient id="paint7_linear_137_3691" x1="36" y1="-50" x2="98" y2="41" gradientUnits="userSpaceOnUse">
<stop stop-color="#8AE174"/>
<stop offset="0.921875" stop-color="#8AE174" stop-opacity="0"/>
</linearGradient>
<linearGradient id="paint8_linear_137_3691" x1="36" y1="-50" x2="98" y2="41" gradientUnits="userSpaceOnUse">
<stop stop-color="#8AE174"/>
<stop offset="0.921875" stop-color="#8AE174" stop-opacity="0"/>
</linearGradient>
<linearGradient id="paint9_linear_137_3691" x1="36" y1="-50" x2="98" y2="41" gradientUnits="userSpaceOnUse">
<stop stop-color="#8AE174"/>
<stop offset="0.921875" stop-color="#8AE174" stop-opacity="0"/>
</linearGradient>
<linearGradient id="paint10_linear_137_3691" x1="36" y1="-50" x2="98" y2="41" gradientUnits="userSpaceOnUse">
<stop stop-color="#8AE174"/>
<stop offset="0.921875" stop-color="#8AE174" stop-opacity="0"/>
</linearGradient>
<linearGradient id="paint11_linear_137_3691" x1="36" y1="-50" x2="98" y2="41" gradientUnits="userSpaceOnUse">
<stop stop-color="#8AE174"/>
<stop offset="0.921875" stop-color="#8AE174" stop-opacity="0"/>
</linearGradient>
<linearGradient id="paint12_linear_137_3691" x1="36" y1="-50" x2="98" y2="41" gradientUnits="userSpaceOnUse">
<stop stop-color="#8AE174"/>
<stop offset="0.921875" stop-color="#8AE174" stop-opacity="0"/>
</linearGradient>
<linearGradient id="paint13_linear_137_3691" x1="36" y1="-50" x2="98" y2="41" gradientUnits="userSpaceOnUse">
<stop stop-color="#8AE174"/>
<stop offset="0.921875" stop-color="#8AE174" stop-opacity="0"/>
</linearGradient>
<linearGradient id="paint14_linear_137_3691" x1="36" y1="-50" x2="98" y2="41" gradientUnits="userSpaceOnUse">
<stop stop-color="#8AE174"/>
<stop offset="0.921875" stop-color="#8AE174" stop-opacity="0"/>
</linearGradient>
<linearGradient id="paint15_linear_137_3691" x1="36" y1="-50" x2="98" y2="41" gradientUnits="userSpaceOnUse">
<stop stop-color="#8AE174"/>
<stop offset="0.921875" stop-color="#8AE174" stop-opacity="0"/>
</linearGradient>
<linearGradient id="paint16_linear_137_3691" x1="36" y1="-50" x2="98" y2="41" gradientUnits="userSpaceOnUse">
<stop stop-color="#8AE174"/>
<stop offset="0.921875" stop-color="#8AE174" stop-opacity="0"/>
</linearGradient>
<linearGradient id="paint17_linear_137_3691" x1="36" y1="-50" x2="98" y2="41" gradientUnits="userSpaceOnUse">
<stop stop-color="#8AE174"/>
<stop offset="0.921875" stop-color="#8AE174" stop-opacity="0"/>
</linearGradient>
<linearGradient id="paint18_linear_137_3691" x1="36" y1="-50" x2="98" y2="41" gradientUnits="userSpaceOnUse">
<stop stop-color="#8AE174"/>
<stop offset="0.921875" stop-color="#8AE174" stop-opacity="0"/>
</linearGradient>
<linearGradient id="paint19_linear_137_3691" x1="36" y1="-50" x2="98" y2="41" gradientUnits="userSpaceOnUse">
<stop stop-color="#8AE174"/>
<stop offset="0.921875" stop-color="#8AE174" stop-opacity="0"/>
</linearGradient>
<linearGradient id="paint20_linear_137_3691" x1="36" y1="-50" x2="98" y2="41" gradientUnits="userSpaceOnUse">
<stop stop-color="#8AE174"/>
<stop offset="0.921875" stop-color="#8AE174" stop-opacity="0"/>
</linearGradient>
<linearGradient id="paint21_linear_137_3691" x1="36" y1="-50" x2="98" y2="41" gradientUnits="userSpaceOnUse">
<stop stop-color="#8AE174"/>
<stop offset="0.921875" stop-color="#8AE174" stop-opacity="0"/>
</linearGradient>
<linearGradient id="paint22_linear_137_3691" x1="36" y1="-50" x2="98" y2="41" gradientUnits="userSpaceOnUse">
<stop stop-color="#8AE174"/>
<stop offset="0.921875" stop-color="#8AE174" stop-opacity="0"/>
</linearGradient>
<linearGradient id="paint23_linear_137_3691" x1="36" y1="-50" x2="98" y2="41" gradientUnits="userSpaceOnUse">
<stop stop-color="#8AE174"/>
<stop offset="0.921875" stop-color="#8AE174" stop-opacity="0"/>
</linearGradient>
<linearGradient id="paint24_linear_137_3691" x1="36" y1="-50" x2="98" y2="41" gradientUnits="userSpaceOnUse">
<stop stop-color="#8AE174"/>
<stop offset="0.921875" stop-color="#8AE174" stop-opacity="0"/>
</linearGradient>
<linearGradient id="paint25_linear_137_3691" x1="36" y1="-50" x2="98" y2="41" gradientUnits="userSpaceOnUse">
<stop stop-color="#8AE174"/>
<stop offset="0.921875" stop-color="#8AE174" stop-opacity="0"/>
</linearGradient>
<linearGradient id="paint26_linear_137_3691" x1="36" y1="-50" x2="98" y2="41" gradientUnits="userSpaceOnUse">
<stop stop-color="#8AE174"/>
<stop offset="0.921875" stop-color="#8AE174" stop-opacity="0"/>
</linearGradient>
<linearGradient id="paint27_linear_137_3691" x1="36" y1="-50" x2="98" y2="41" gradientUnits="userSpaceOnUse">
<stop stop-color="#8AE174"/>
<stop offset="0.921875" stop-color="#8AE174" stop-opacity="0"/>
</linearGradient>
<linearGradient id="paint28_linear_137_3691" x1="36" y1="-50" x2="98" y2="41" gradientUnits="userSpaceOnUse">
<stop stop-color="#8AE174"/>
<stop offset="0.921875" stop-color="#8AE174" stop-opacity="0"/>
</linearGradient>
<linearGradient id="paint29_linear_137_3691" x1="36" y1="-50" x2="98" y2="41" gradientUnits="userSpaceOnUse">
<stop stop-color="#8AE174"/>
<stop offset="0.921875" stop-color="#8AE174" stop-opacity="0"/>
</linearGradient>
<linearGradient id="paint30_linear_137_3691" x1="36" y1="-50" x2="98" y2="41" gradientUnits="userSpaceOnUse">
<stop stop-color="#8AE174"/>
<stop offset="0.921875" stop-color="#8AE174" stop-opacity="0"/>
</linearGradient>
<linearGradient id="paint31_linear_137_3691" x1="36" y1="-50" x2="98" y2="41" gradientUnits="userSpaceOnUse">
<stop stop-color="#8AE174"/>
<stop offset="0.921875" stop-color="#8AE174" stop-opacity="0"/>
</linearGradient>
<linearGradient id="paint32_linear_137_3691" x1="36" y1="-50" x2="98" y2="41" gradientUnits="userSpaceOnUse">
<stop stop-color="#8AE174"/>
<stop offset="0.921875" stop-color="#8AE174" stop-opacity="0"/>
</linearGradient>
<linearGradient id="paint33_linear_137_3691" x1="36" y1="-50" x2="98" y2="41" gradientUnits="userSpaceOnUse">
<stop stop-color="#8AE174"/>
<stop offset="0.921875" stop-color="#8AE174" stop-opacity="0"/>
</linearGradient>
<linearGradient id="paint34_linear_137_3691" x1="36" y1="-50" x2="98" y2="41" gradientUnits="userSpaceOnUse">
<stop stop-color="#8AE174"/>
<stop offset="0.921875" stop-color="#8AE174" stop-opacity="0"/>
</linearGradient>
<linearGradient id="paint35_linear_137_3691" x1="36" y1="-50" x2="98" y2="41" gradientUnits="userSpaceOnUse">
<stop stop-color="#8AE174"/>
<stop offset="0.921875" stop-color="#8AE174" stop-opacity="0"/>
</linearGradient>
<linearGradient id="paint36_linear_137_3691" x1="36" y1="-50" x2="98" y2="41" gradientUnits="userSpaceOnUse">
<stop stop-color="#8AE174"/>
<stop offset="0.921875" stop-color="#8AE174" stop-opacity="0"/>
</linearGradient>
<linearGradient id="paint37_linear_137_3691" x1="36" y1="-50" x2="98" y2="41" gradientUnits="userSpaceOnUse">
<stop stop-color="#8AE174"/>
<stop offset="0.921875" stop-color="#8AE174" stop-opacity="0"/>
</linearGradient>
<linearGradient id="paint38_linear_137_3691" x1="36" y1="-50" x2="98" y2="41" gradientUnits="userSpaceOnUse">
<stop stop-color="#8AE174"/>
<stop offset="0.921875" stop-color="#8AE174" stop-opacity="0"/>
</linearGradient>
<linearGradient id="paint39_linear_137_3691" x1="36" y1="-50" x2="98" y2="41" gradientUnits="userSpaceOnUse">
<stop stop-color="#8AE174"/>
<stop offset="0.921875" stop-color="#8AE174" stop-opacity="0"/>
</linearGradient>
<linearGradient id="paint40_linear_137_3691" x1="36" y1="-50" x2="98" y2="41" gradientUnits="userSpaceOnUse">
<stop stop-color="#8AE174"/>
<stop offset="0.921875" stop-color="#8AE174" stop-opacity="0"/>
</linearGradient>
<linearGradient id="paint41_linear_137_3691" x1="36" y1="-50" x2="98" y2="41" gradientUnits="userSpaceOnUse">
<stop stop-color="#8AE174"/>
<stop offset="0.921875" stop-color="#8AE174" stop-opacity="0"/>
</linearGradient>
</defs>
</svg>
